Coordinates
version=1
nRows=9
nColumns=36
inDegrees=yes

Units are S.I. units (second, meters, Newtons, ...)
If the header above contains a line with 'inDegrees', this indicates whether rotational values are in degrees (yes) or radians (no).

endheader
time	pelvis_tilt	pelvis_list	pelvis_rotation	pelvis_tx	pelvis_ty	pelvis_tz	hip_flexion_r	hip_adduction_r	hip_rotation_r	knee_angle_r	knee_angle_r_beta	ankle_angle_r	subtalar_angle_r	mtp_angle_r	hip_flexion_l	hip_adduction_l	hip_rotation_l	knee_angle_l	knee_angle_l_beta	ankle_angle_l	subtalar_angle_l	mtp_angle_l	lumbar_extension	lumbar_bending	lumbar_rotation	arm_flex_r	arm_add_r	arm_rot_r	elbow_flex_r	pro_sup_r	arm_flex_l	arm_add_l	arm_rot_l	elbow_flex_l	pro_sup_l
      6.97000000	    -14.33428591	     -7.11610997	      9.32779457	     -0.23795112	      0.91108726	     -0.53966130	     36.75204320	      5.75248595	    -12.94071210	     33.30993604	      0.58136806	     15.43200516	    -10.38095903	     -7.49999987	     39.64415727	    -18.95569220	      0.41860286	     25.28364531	      0.44128286	     11.30122666	     10.89672315	     -7.49999987	     -8.60374766	      5.53070039	     -7.66546535	     40.11692681	    -15.14365661	     24.97119075	    121.89947074	     96.26848613	     43.85294629	    -22.23289691	     18.54493640	    116.28467027	    102.02232906
      6.98000000	    -14.13185338	     -7.07605209	      9.31650724	     -0.23526378	      0.91342623	     -0.53897811	     35.90924748	      5.98603030	    -12.74078722	     32.40933426	      0.56564959	     15.16103656	    -10.34408643	     -7.49999987	     38.75041396	    -19.04210194	      0.17449025	     24.45416826	      0.42680575	     11.08642103	     11.17979461	     -7.49999987	     -8.29074753	      5.53522526	     -7.57079969	     39.42807264	    -15.20560268	     24.95482316	    122.00641374	     96.27462492	     42.69253697	    -22.20447924	     18.11373357	    116.48043549	    101.94859889
      6.99000000	    -13.89034912	     -7.01635942	      9.31883802	     -0.23264074	      0.91575413	     -0.53846512	     35.05047339	      6.17896373	    -12.54725618	     31.56834792	      0.55097161	     14.87421760	    -10.30003182	     -7.49999987	     37.79362886	    -19.11324759	     -0.17183648	     23.57890872	      0.41152959	     10.82396975	     11.51401835	     -7.49999987	     -8.06280717	      5.53351972	     -7.51794053	     38.78657243	    -15.30040617	     24.97405507	    122.12029273	     96.27420353	     41.58942661	    -22.17431412	     17.61344196	    116.69211827	    101.90302133
      7.00000000	    -13.76645385	     -6.97821040	      9.34079216	     -0.23009900	      0.91771017	     -0.53810083	     34.38297679	      6.29697824	    -12.53688464	     30.84689135	      0.53837982	     14.70947278	    -10.22905861	     -7.49999987	     37.01538579	    -19.14613379	     -0.50132773	     22.73496916	      0.39680007	     10.69280557	     11.67606204	     -7.49999987	     -7.68505722	      5.53347111	     -7.46151133	     38.11778275	    -15.44237846	     25.00159004	    122.24634714	     96.27253437	     40.59629595	    -22.16376169	     17.36603537	    116.83649038	    101.89536517
      7.01000000	    -13.42381899	     -6.92891716	      9.31848111	     -0.22754100	      0.91991945	     -0.53752178	     33.49070529	      6.51736852	    -12.34912904	     30.12107212	      0.52571188	     14.37548737	    -10.17274333	     -7.49999987	     35.97007402	    -19.25829600	     -0.87153029	     21.82791670	      0.38096902	     10.30337496	     11.90164474	     -7.49999987	     -7.63256121	      5.50276718	     -7.39167697	     37.56831913	    -15.51645873	     24.95064535	    122.35822870	     96.24401382	     39.55901223	    -22.06216897	     16.76910607	    117.08034649	    101.89213087
      7.02000000	    -13.18481226	     -6.91666509	      9.33416814	     -0.22513994	      0.92178677	     -0.53705295	     32.74707160	      6.72903880	    -12.16028361	     29.42117663	      0.51349640	     13.85372331	    -10.54207431	     -7.49999987	     35.12054053	    -19.35127861	     -1.18939783	     21.02751064	      0.36699929	     10.05445288	     12.19989123	     -7.49999987	     -7.45367965	      5.56935980	     -7.51392348	     37.21614755	    -15.53390324	     25.28812271	    122.36600534	     95.29200472	     38.39278131	    -22.12509513	     16.10477617	    117.53723134	    101.34999542
      7.03000000	    -12.98010430	     -6.87200268	      9.37939188	     -0.22290486	      0.92348732	     -0.53679054	     32.07859632	      6.83780071	    -12.05325021	     28.83725114	      0.50330498	     13.81794886	    -10.33198047	     -7.49999987	     34.29234194	    -19.33511468	     -1.31517883	     20.20710772	      0.35268056	      9.70922186	     12.15737072	     -7.49999987	     -7.26845377	      5.57536567	     -7.43075196	     36.68452229	    -15.71288338	     25.29366202	    122.62630054	     94.43348573	     37.52394987	    -22.00742261	     15.78646546	    117.73511782	    100.48948673
      7.04000000	    -13.00614948	     -6.82429760	      9.41959991	     -0.22088874	      0.92466604	     -0.53659805	     31.74689471	      6.86314774	    -12.04828250	     28.41790874	      0.49598607	     13.76668170	    -10.38493443	     -7.49999987	     33.80729996	    -19.27437647	     -1.50428935	     19.55101018	      0.34122950	      9.58334647	     12.30201730	     -7.49999987	     -6.83874445	      5.53457686	     -7.34581593	     36.06067114	    -15.93286854	     25.29622606	    122.87486787	     94.26451623	     36.67439713	    -22.01040573	     15.63935852	    117.81803725	    100.74484984
      7.05000000	    -12.93243863	     -6.79033115	      9.44134487	     -0.21888712	      0.92596031	     -0.53638082	     31.27294021	      6.95946667	    -11.95368468	     27.90215297	      0.48698444	     13.68810391	    -10.44991830	     -7.49999987	     33.20212509	    -19.25112878	     -1.64429792	     18.88156810	      0.32954553	      9.48472019	     12.50786836	     -7.49999987	     -6.56732421	      5.53950353	     -7.22940261	     35.49067349	    -16.14775800	     25.27833900	    123.13927762	     94.21885414	     35.87469219	    -22.01342941	     15.39472653	    117.93309697	    101.17791139
